<svg width="340" height="109" viewBox="0 0 340 109" fill="none" xmlns="http://www.w3.org/2000/svg">
<path d="M156.196 1.23381e-10C168.314 8.21836e-05 341.339 49.147 339.992 51.84C338.646 54.5331 199.283 88.1954 187.165 92.9081C175.047 97.6209 160.235 108.393 160.235 108.393C160.235 108.393 161.582 104.353 148.79 92.9081C135.998 81.4629 49.8227 48.4738 30.9717 46.4541C12.1207 44.4343 0.675671 46.4541 0.0023417 43.7611C-0.670988 41.0681 144.077 -8.21834e-05 156.196 1.23381e-10Z" fill="#FED600"/>
<path d="M75.4037 49.1471C75.4037 42.4145 83.4827 41.7413 94.2546 39.0483C105.027 36.3554 268.626 43.7611 268.626 43.7611C268.626 43.7611 285.457 45.1076 290.17 49.1471C294.882 53.1865 295.556 53.1865 292.863 58.5725C290.17 63.9585 184.47 86.1756 180.43 88.1954C176.391 90.2151 166.965 90.8884 158.886 88.1954C150.807 85.5024 75.4037 55.8796 75.4037 49.1471Z" fill="#FEE54A"/>
</svg>
