<svg width="340" height="110" viewBox="0 0 340 110" fill="none" xmlns="http://www.w3.org/2000/svg">
<path d="M199.893 13.084L189.311 21.9624C189.311 21.9624 294.549 24.0651 272.795 49.2985C251.042 74.5318 114.057 67.2889 114.057 67.2889V70.5599C114.057 70.5599 260.449 80.3728 294.549 51.1676C328.648 21.9624 199.893 13.084 199.893 13.084Z" fill="#F5D1DB"/>
<path d="M114.057 70.5599V74.9991C114.057 74.9991 200.839 76.217 251.042 69.6253C292.644 64.163 302.192 54.2049 303.955 42.5228C304.506 38.8736 293.555 28.1421 279.851 24.0651C249.684 15.0907 201.657 13.3176 201.657 13.3176C201.657 13.3176 300.428 20.7941 300.428 42.5228C300.428 51.4709 279.404 63.8692 242.224 68.2234C189.118 74.4427 114.057 70.5599 114.057 70.5599Z" fill="#A72450"/>
<path d="M93.7511 73.8154L112.987 67.6449C112.987 67.6449 20.4932 47.5854 67.6666 28.6116C114.84 9.63769 230.312 39.8072 230.312 39.8072L233.888 36.8609C233.888 36.8609 112.751 2.75268 50.1156 23.1731C-12.5199 43.5935 93.7511 73.8154 93.7511 73.8154Z" fill="#F5D1DB"/>
<path d="M233.888 36.8609L238.74 32.8623C238.74 32.8623 161.902 16.7854 109.477 14.0572C66.0348 11.7963 46.5509 19.1179 32.194 29.336C27.7092 32.5279 25.8443 44.0846 33.7323 50.1225C51.0957 63.4133 92.4178 73.3005 92.4178 73.3005C92.4178 73.3005 11.6224 49.5169 35.3714 29.9449C45.1514 21.885 77.6392 14.3463 115.889 16.8421C170.521 20.4069 233.888 36.8609 233.888 36.8609Z" fill="#A72450"/>
<path d="M138.44 104.436L148.124 95.3965C148.124 95.3965 42.7586 94.963 61.9627 69.405C81.1668 43.8471 218.77 48.9136 218.77 48.9136L218.442 45.6453C218.442 45.6453 71.1815 38.1597 40.0393 67.8821C8.89723 97.6044 138.44 104.436 138.44 104.436Z" fill="#F5D1DB"/>
<path d="M218.442 45.6452L217.997 41.2096C217.997 41.2096 131.161 41.3677 81.659 48.7496C40.6386 54.8668 32.0977 64.9682 31.5074 76.669C31.323 80.324 43.3424 90.8735 57.4449 94.7301C88.4878 103.219 136.655 104.23 136.655 104.23C136.655 104.23 37.2122 98.3245 35.0321 76.6131C34.1343 67.6721 53.8971 54.9506 90.6115 50.0106C143.051 42.9549 218.442 45.6452 218.442 45.6452Z" fill="#A72450"/>
<path d="M241.7 37.8464L224.363 44.8494C224.363 44.8494 322.015 60.5806 280.602 81.571C239.189 102.561 115.803 77.8289 115.803 77.8289L113.098 80.9182C113.098 80.9182 243.242 109.307 299.601 86.1775C355.96 63.0484 241.7 37.8464 241.7 37.8464Z" fill="#F5D1DB"/>
<path d="M113.098 80.9182L109.427 85.1108C109.427 85.1108 190.381 97.5958 243.247 97.9274C287.055 98.2021 304.307 90.0443 315.635 79.2415C319.173 75.867 317.705 64.3013 308.134 58.6608C287.065 46.2449 243.173 38.2974 243.173 38.2974C243.173 38.2974 330.273 58.2592 312.303 78.7808C304.903 87.2318 274.794 96.1954 236.077 95.4516C180.778 94.3891 113.098 80.9182 113.098 80.9182Z" fill="#A72450"/>
</svg>
