<svg width="297" height="104" viewBox="0 0 297 104" fill="none" xmlns="http://www.w3.org/2000/svg">
<path d="M16.0718 45.3675C16.0718 45.3675 3.96321 54.04 4.76301 61.3209C5.56281 68.6018 14.4563 75.2801 14.4563 75.2801C14.4563 75.2801 22.9536 81.8926 36.2661 85.9988C50.776 90.4744 71.99 93.4911 87.1557 93.9755C116.235 94.9045 143.296 84.5032 151.777 81.7612C160.259 79.0192 172.836 70.8232 173.183 61.3209C173.505 52.5274 156.22 41.3792 156.22 41.3792C156.22 41.3792 180.857 54.5906 176.01 66.3064C171.164 78.0221 166.227 78.2714 160.259 81.7612C154.29 85.251 124.313 98.4624 92.8101 97.4654C61.307 96.4683 43.536 93.9755 24.9573 85.9988C15.4735 81.927 9.20575 78.0221 4.763 74.0338C1.4965 69.652 -0.891358 65.3093 0.320269 59.3267C2.0893 50.592 16.0718 45.3675 16.0718 45.3675Z" fill="#2D8A17"/>
<ellipse cx="89.1751" cy="61.0716" rx="84.0082" ry="32.6546" fill="#E0F19F"/>
<path d="M86.7518 60.8224L67.7692 49.3559M86.7518 60.8224L92.4062 52.8457M86.7518 60.8224L111.389 65.8078M86.7518 60.8224L92.4062 74.0338M86.7518 60.8224L76.2508 69.0483M86.7518 60.8224H62.1148M67.7692 49.3559V41.3792L92.4062 52.8457M67.7692 49.3559H53.2293L62.1148 60.8224M92.4062 52.8457L111.389 47.1124V55.8369L108.158 55.3278M92.4062 52.8457L108.158 55.3278M111.389 65.8078L139.661 55.8369L108.158 55.3278M111.389 65.8078V78.0221L92.4062 74.0338M92.4062 74.0338L76.2508 81.2627V69.0483M76.2508 69.0483L53.2293 78.0221L57.672 65.8078M76.2508 69.0483L57.672 65.8078M76.2508 69.0483L62.1148 60.8224M57.672 65.8078L39.9011 60.8224H62.1148" stroke="#CFE592" stroke-width="4"/>
<path d="M136.43 51.8486C136.43 51.8486 124.321 60.5211 125.121 67.802C125.921 75.0829 134.814 81.7612 134.814 81.7612C134.814 81.7612 143.312 88.3737 156.624 92.4799C171.134 96.9555 192.348 99.9721 207.514 100.457C236.593 101.386 263.654 90.9843 272.135 88.2423C280.617 85.5003 293.194 77.3042 293.541 67.802C293.863 59.0085 276.578 47.8602 276.578 47.8602C276.578 47.8602 301.215 61.0716 296.368 72.7874C291.522 84.5032 286.585 84.7525 280.617 88.2423C274.648 91.7321 244.671 104.944 213.168 103.946C181.665 102.949 163.894 100.457 145.315 92.4799C135.831 88.4081 129.564 84.5032 125.121 80.5149C121.854 76.133 119.467 71.7903 120.678 65.8078C122.447 57.073 136.43 51.8486 136.43 51.8486Z" fill="#2D8A17"/>
<ellipse cx="209.533" cy="67.5527" rx="84.0082" ry="32.6546" fill="#E0F19F"/>
<path d="M207.11 67.3034L188.127 55.8369M207.11 67.3034L212.764 59.3267M207.11 67.3034L231.747 72.2889M207.11 67.3034L212.764 80.5149M207.11 67.3034L196.609 75.5294M207.11 67.3034H182.473M188.127 55.8369V47.8602L212.764 59.3267M188.127 55.8369H173.587L182.473 67.3034M212.764 59.3267L231.747 53.5935V62.318L228.516 61.8089M212.764 59.3267L228.516 61.8089M231.747 72.2889L260.019 62.318L228.516 61.8089M231.747 72.2889V84.5032L212.764 80.5149M212.764 80.5149L196.609 87.7438V75.5294M196.609 75.5294L173.587 84.5032L178.03 72.2889M196.609 75.5294L178.03 72.2889M196.609 75.5294L182.473 67.3034M178.03 72.2889L160.259 67.3034H182.473" stroke="#CFE592" stroke-width="4"/>
<path d="M79.5655 16.9505C79.5655 16.9505 67.4569 25.623 68.2567 32.9039C69.0565 40.1848 77.9499 46.8631 77.9499 46.8631C77.9499 46.8631 86.4473 53.4756 99.7597 57.5818C114.27 62.0574 135.484 65.0741 150.649 65.5585C179.729 66.4875 206.789 56.0862 215.271 53.3442C223.753 50.6022 236.33 42.4061 236.677 32.9039C236.998 24.1104 219.714 12.9621 219.714 12.9621C219.714 12.9621 244.351 26.1736 239.504 37.8893C234.658 49.6051 229.721 49.8544 223.753 53.3442C217.784 56.834 187.807 70.0454 156.304 69.0484C124.801 68.0513 107.03 65.5585 88.451 57.5818C78.9671 53.51 72.6994 49.6051 68.2566 45.6168C64.9902 41.235 62.6023 36.8923 63.8139 30.9097C65.583 22.1749 79.5655 16.9505 79.5655 16.9505Z" fill="#2D8A17"/>
<ellipse cx="152.669" cy="32.6546" rx="84.0082" ry="32.6546" fill="#E0F19F"/>
<path d="M150.245 32.4054L131.263 20.9388M150.245 32.4054L155.9 24.4287M150.245 32.4054L174.882 37.3908M150.245 32.4054L155.9 45.6168M150.245 32.4054L139.744 40.6313M150.245 32.4054H125.608M131.263 20.9388V12.9621L155.9 24.4287M131.263 20.9388H116.723L125.608 32.4054M155.9 24.4287L174.882 18.6954V27.4199L171.651 26.9108M155.9 24.4287L171.651 26.9108M174.882 37.3908L203.154 27.4199L171.651 26.9108M174.882 37.3908V49.6051L155.9 45.6168M155.9 45.6168L139.744 52.8457V40.6313M139.744 40.6313L116.723 49.6051L121.166 37.3908M139.744 40.6313L121.166 37.3908M139.744 40.6313L125.608 32.4054M121.166 37.3908L103.395 32.4054H125.608" stroke="#CFE592" stroke-width="4"/>
</svg>
