<svg width="340" height="70" viewBox="0 0 340 70" fill="none" xmlns="http://www.w3.org/2000/svg">
<path d="M340 3.62069L313.416 0H307.353L277.503 7.39224H243.457H200.549L169.767 5.12931L164.636 7.39224L146.914 9.05172L135.72 13.2759L124.993 10.4095L111.001 7.39224H73.69L68.0933 10.4095L79.7531 13.2759V17.0474H59.6982L35.9122 19.4612H19.1221L14.9246 24.1379L24.2524 25.194L27.0508 30.3233L19.1221 31.9828L11.1934 36.2069L0 38.1681V44.806L11.1934 51.5948L27.0508 55.2155H35.9122V59.4397L43.8409 61.5517L49.904 63.8147L59.6982 61.5517H68.0933L73.69 66.0776H87.6818L96.0768 63.8147L101.674 68.0388H111.001L124.993 66.0776L135.72 68.0388L144.582 70H157.641L164.636 68.0388L169.767 66.0776L177.695 68.0388H190.288H200.549L207.545 66.0776V63.8147H215.473V66.0776H235.528L243.457 63.8147H255.583H277.503L288.23 61.5517L297.092 58.0819L307.353 55.2155L313.416 51.5948L320.412 48.4267V44.806L313.416 42.5431V40.7328L325.075 42.5431H340V36.2069H302.222L313.416 33.4914V30.3233H331.139L340 26.4009V19.4612L331.139 17.0474L340 13.2759V3.62069Z" fill="#89D11E"/>
</svg>
