<svg width="342" height="102" viewBox="0 0 342 102" fill="none" xmlns="http://www.w3.org/2000/svg">
<path d="M174.64 73.8153C172.589 71.6922 156.692 65.677 156.692 65.677C156.692 65.677 136.18 61.4309 126.949 55.0618C117.719 48.6927 125.411 35.2469 130.539 29.9393C133.927 26.4329 153.876 16.1317 174.123 9.13568C184.524 5.54186 195.004 2.82023 203.357 2.33991C227.972 0.924554 237.715 0.21688 258.227 2.33991C278.74 4.46293 290.021 8.35515 298.226 12.6012C299.383 13.1999 300.775 13.9745 302.319 14.8833C311.725 20.4197 326.792 30.9372 328.995 37.0161C331.559 44.0928 345.404 58.6002 328.995 70.2769L328.72 70.4721C312.436 82.06 299.137 91.523 278.74 94.3379C258.227 97.1685 238.228 98.2301 222.331 94.3379C206.434 90.4456 189.511 84.7842 177.717 76.9998L174.64 73.8153Z" fill="url(#paint0_radial_2_110)"/>
<path d="M156.692 65.677C156.692 65.677 172.589 71.6922 174.64 73.8153L177.717 76.9998C189.511 84.7842 206.434 90.4456 222.331 94.3379C238.228 98.2301 258.227 97.1685 278.74 94.3379C299.137 91.523 312.436 82.06 328.72 70.4721L328.995 70.2769C345.404 58.6002 331.559 44.0928 328.995 37.0161C326.792 30.9372 311.725 20.4197 302.319 14.8833C315.55 22.0221 325.692 25.4172 333.302 36.1995C339.606 45.1315 342.2 50.6452 340.481 61.1526C338.914 70.7342 330.865 76.7378 322.02 82.3829C305.025 93.2301 280.596 99.4053 253.817 100.782C221.344 102.452 204.588 94.3379 178.435 82.3829C175.057 80.8389 173.31 79.0741 171.382 77.1279L171.256 76.9998C169.113 74.8368 166.951 74.1871 164.076 72.4754C148.68 63.3076 125.497 66.0694 119.975 53.3681C112.283 35.6762 128.18 25.0611 153.82 14.7998C158.774 12.8174 165.775 10.8668 174.123 9.13568C153.876 16.1317 133.927 26.4329 130.539 29.9393C125.411 35.2469 117.719 48.6927 126.949 55.0618C136.18 61.4309 156.692 65.677 156.692 65.677Z" fill="#CA0203"/>
<path d="M174.64 73.8153C172.589 71.6922 156.692 65.677 156.692 65.677C156.692 65.677 136.18 61.4309 126.949 55.0618C117.719 48.6927 125.411 35.2469 130.539 29.9393C133.927 26.4329 153.876 16.1317 174.123 9.13568M174.64 73.8153C176.691 75.9383 177.717 76.9998 177.717 76.9998M174.64 73.8153L177.717 76.9998M298.226 12.6012C290.021 8.35515 278.74 4.46293 258.227 2.33991C237.715 0.21688 227.972 0.924554 203.357 2.33991C195.004 2.82023 184.524 5.54186 174.123 9.13568M298.226 12.6012C267.361 -1.49651 208.991 1.9058 174.123 9.13568M298.226 12.6012C299.622 13.4075 300.986 14.1644 302.319 14.8833M298.226 12.6012C299.383 13.1999 300.775 13.9745 302.319 14.8833M328.995 70.2769C345.404 58.6002 331.559 44.0928 328.995 37.0161C326.792 30.9372 311.725 20.4197 302.319 14.8833M328.995 70.2769L328.72 70.4721M328.995 70.2769C328.903 70.342 328.812 70.4071 328.72 70.4721M177.717 76.9998C189.511 84.7842 206.434 90.4456 222.331 94.3379C238.228 98.2301 258.227 97.1685 278.74 94.3379C299.137 91.523 312.436 82.06 328.72 70.4721M171.256 76.9998C169.113 74.8368 166.951 74.1871 164.076 72.4754C148.68 63.3076 125.497 66.0694 119.975 53.3681C112.283 35.6762 128.18 25.0611 153.82 14.7998C158.774 12.8174 165.775 10.8668 174.123 9.13568M171.256 76.9998L171.382 77.1279M171.256 76.9998C171.298 77.0426 171.34 77.0853 171.382 77.1279M302.319 14.8833C315.55 22.0221 325.692 25.4172 333.302 36.1995C339.606 45.1315 342.2 50.6452 340.481 61.1526C338.914 70.7342 330.865 76.7378 322.02 82.3829C305.025 93.2301 280.596 99.4053 253.817 100.782C221.344 102.452 204.588 94.3379 178.435 82.3829C175.057 80.8389 173.31 79.0741 171.382 77.1279" stroke="black"/>
<path d="M175.632 73.8153C177.785 71.6922 194.473 65.677 194.473 65.677C194.473 65.677 216.005 61.4309 225.694 55.0618C235.384 48.6927 227.309 35.2469 221.926 29.9393C218.37 26.4329 197.428 16.1317 176.174 9.13568C165.256 5.54186 154.256 2.82023 145.487 2.33991C119.648 0.924554 109.421 0.21688 87.8883 2.33991C66.3562 4.46293 54.5135 8.35515 45.9006 12.6012C44.6862 13.1999 43.2255 13.9745 41.6048 14.8833C31.7312 20.4197 15.9143 30.9372 13.6023 37.0161C10.9108 44.0928 -3.6234 58.6002 13.6023 70.2769L13.8904 70.4721C30.9845 82.06 44.9441 91.523 66.3562 94.3379C87.8883 97.1686 108.882 98.2301 125.57 94.3379C142.257 90.4457 160.021 84.7842 172.402 76.9998L175.632 73.8153Z" fill="url(#paint1_radial_2_110)"/>
<path d="M194.473 65.677C194.473 65.677 177.785 71.6922 175.632 73.8153L172.402 76.9998C160.021 84.7842 142.257 90.4457 125.57 94.3379C108.882 98.2301 87.8883 97.1686 66.3562 94.3379C44.9441 91.523 30.9845 82.06 13.8904 70.4721L13.6023 70.2769C-3.6234 58.6002 10.9108 44.0928 13.6023 37.0161C15.9143 30.9372 31.7312 20.4197 41.6048 14.8833C27.715 22.0221 17.0694 25.4172 9.08061 36.1995C2.46279 45.1315 -0.25971 50.6452 1.54437 61.1526C3.1895 70.7342 11.6389 76.7378 20.9233 82.3829C38.7637 93.2301 64.4079 99.4053 92.5178 100.782C126.606 102.452 144.195 94.3379 171.649 82.3829C175.194 80.8389 177.029 79.0741 179.052 77.1279L179.185 76.9998C181.434 74.8368 183.703 74.1871 186.721 72.4754C202.882 63.3076 227.218 66.0694 233.015 53.3682C241.09 35.6762 224.402 25.0611 197.487 14.7998C192.287 12.8174 184.938 10.8668 176.174 9.13568C197.428 16.1317 218.37 26.4329 221.926 29.9393C227.309 35.2469 235.384 48.6927 225.694 55.0618C216.005 61.4309 194.473 65.677 194.473 65.677Z" fill="#CA0203"/>
<path d="M175.632 73.8153C177.785 71.6922 194.473 65.677 194.473 65.677C194.473 65.677 216.005 61.4309 225.694 55.0618C235.384 48.6927 227.309 35.2469 221.926 29.9393C218.37 26.4329 197.428 16.1317 176.174 9.13568M175.632 73.8153C173.479 75.9383 172.402 76.9998 172.402 76.9998M175.632 73.8153L172.402 76.9998M45.9006 12.6012C54.5135 8.35515 66.3562 4.46293 87.8883 2.33991C109.421 0.21688 119.648 0.924554 145.487 2.33991C154.256 2.82023 165.256 5.54186 176.174 9.13568M45.9006 12.6012C78.3002 -1.49651 139.573 1.9058 176.174 9.13568M45.9006 12.6012C44.4354 13.4075 43.0036 14.1644 41.6048 14.8833M45.9006 12.6012C44.6862 13.1999 43.2255 13.9745 41.6048 14.8833M13.6023 70.2769C-3.6234 58.6002 10.9108 44.0928 13.6023 37.0161C15.9143 30.9372 31.7312 20.4197 41.6048 14.8833M13.6023 70.2769L13.8904 70.4721M13.6023 70.2769C13.6985 70.342 13.7945 70.4071 13.8904 70.4721M172.402 76.9998C160.021 84.7842 142.257 90.4457 125.57 94.3379C108.882 98.2301 87.8883 97.1686 66.3562 94.3379C44.9441 91.523 30.9845 82.06 13.8904 70.4721M179.185 76.9998C181.434 74.8368 183.703 74.1871 186.721 72.4754C202.882 63.3076 227.218 66.0694 233.015 53.3682C241.09 35.6762 224.402 25.0611 197.487 14.7998C192.287 12.8174 184.938 10.8668 176.174 9.13568M179.185 76.9998L179.052 77.1279M179.185 76.9998C179.14 77.0426 179.096 77.0853 179.052 77.1279M41.6048 14.8833C27.715 22.0221 17.0694 25.4172 9.08061 36.1995C2.46279 45.1315 -0.25971 50.6452 1.54437 61.1526C3.1895 70.7342 11.6389 76.7378 20.9233 82.3829C38.7637 93.2301 64.4079 99.4053 92.5178 100.782C126.606 102.452 144.195 94.3379 171.649 82.3829C175.194 80.8389 177.029 79.0741 179.052 77.1279" stroke="black"/>
<defs>
<radialGradient id="paint0_radial_2_110" cx="0" cy="0" r="1" gradientUnits="userSpaceOnUse" gradientTransform="translate(229.764 48.9373) rotate(90) scale(47.9372 107.127)">
<stop stop-color="#FF9968"/>
<stop offset="0.250572" stop-color="#FA7849"/>
<stop offset="0.350488" stop-color="#EF351F"/>
<stop offset="0.474193" stop-color="#EB321F"/>
<stop offset="0.564594" stop-color="#F33D26"/>
<stop offset="0.797731" stop-color="#EF3821"/>
<stop offset="0.878741" stop-color="#F1482E"/>
<stop offset="1" stop-color="#ED3E26"/>
</radialGradient>
<radialGradient id="paint1_radial_2_110" cx="0" cy="0" r="1" gradientUnits="userSpaceOnUse" gradientTransform="translate(117.767 48.9373) rotate(90) scale(47.9372 112.454)">
<stop stop-color="#FF9968"/>
<stop offset="0.250572" stop-color="#FA7849"/>
<stop offset="0.350488" stop-color="#EF351F"/>
<stop offset="0.474193" stop-color="#EB321F"/>
<stop offset="0.564594" stop-color="#F33D26"/>
<stop offset="0.797731" stop-color="#EF3821"/>
<stop offset="0.878741" stop-color="#F1482E"/>
<stop offset="1" stop-color="#ED3E26"/>
</radialGradient>
</defs>
</svg>
