<svg width="350" height="70" viewBox="0 0 350 70" fill="none" xmlns="http://www.w3.org/2000/svg">
<path d="M0 55.5556C0 24.8731 24.8731 0 55.5556 0H294.882C325.323 0 350 24.6772 350 55.1181V55.1181C350 63.3371 343.337 70 335.118 70H14.4445C6.46702 70 0 63.533 0 55.5556V55.5556Z" fill="#E68E3A"/>
<path d="M62.6232 8C62.6232 8 30.7803 8.28459 33.1232 18.5C35.4661 28.7154 42.1232 34 49.1232 28C56.1232 22 62.6232 8 62.6232 8Z" fill="#F5C878"/>
<path d="M156.775 37.4923C156.775 37.4923 147.787 6.94294 138.602 11.9921C129.418 17.0413 126.157 24.8904 133.844 29.9812C141.531 35.0719 156.775 37.4923 156.775 37.4923Z" fill="#F5C878"/>
<path d="M26.055 29C26.055 29 23.0542 60.7025 33.4567 59.4256C43.8593 58.1487 49.8023 52.0721 44.5561 44.4906C39.31 36.9091 26.055 29 26.055 29Z" fill="#F5C878"/>
<path d="M129.176 4.99999C129.176 4.99999 97.863 10.7898 101.938 20.4458C106.013 30.1018 113.484 34.1548 119.34 27.0342C125.197 19.9135 129.176 4.99999 129.176 4.99999Z" fill="#F5C878"/>
<path d="M63 19.6496C63 19.6496 88.1243 39.2154 92.6371 29.756C97.1499 20.2967 95.2185 12.0194 86.0056 12.37C76.7927 12.7206 63 19.6496 63 19.6496Z" fill="#F5C878"/>
<path d="M130.677 38.5594C130.677 38.5594 141.116 68.6438 150.048 63.161C158.98 57.6782 161.862 49.682 153.941 44.9649C146.019 40.2477 130.677 38.5594 130.677 38.5594Z" fill="#F5C878"/>
<path d="M82.1249 60.3809C82.1249 60.3809 77.778 28.8348 67.9452 32.4625C58.1124 36.0902 53.7208 43.3674 60.5652 49.5442C67.4097 55.7211 82.1249 60.3809 82.1249 60.3809Z" fill="#F5C878"/>
<path d="M99.8806 62.3813C99.8806 62.3813 129.033 49.5671 122.853 41.1024C116.672 32.6378 108.471 30.4055 104.403 38.679C100.335 46.9526 99.8806 62.3813 99.8806 62.3813Z" fill="#F5C878"/>
<path d="M194.754 37.9058C194.754 37.9058 225.39 29.2167 220.431 19.9835C215.471 10.7504 207.655 7.41279 202.489 15.0493C197.323 22.6858 194.754 37.9058 194.754 37.9058Z" fill="#F5C878"/>
<path d="M206 44.2788C206 44.2788 227.806 67.4859 233.723 58.8359C239.641 50.1859 239.01 41.7098 229.853 40.6351C220.696 39.5604 206 44.2788 206 44.2788Z" fill="#F5C878"/>
<path d="M263.391 29.5014C263.391 29.5014 248.907 1.1414 240.815 7.80205C232.723 14.4627 230.97 22.7796 239.466 26.3608C247.962 29.9421 263.391 29.5014 263.391 29.5014Z" fill="#F5C878"/>
<path d="M279.405 43.0956C279.405 43.0956 248.108 37.2192 248.432 47.6949C248.756 58.1705 254.266 64.6423 262.293 60.1087C270.321 55.575 279.405 43.0956 279.405 43.0956Z" fill="#F5C878"/>
<path d="M288.891 40.1173C288.891 40.1173 309.748 16.0538 300.538 11.0511C291.328 6.04833 282.961 7.54296 282.828 16.7616C282.695 25.9802 288.891 40.1173 288.891 40.1173Z" fill="#F5C878"/>
<path d="M189.754 31.3766C189.754 31.3766 167.81 54.4524 176.779 59.8746C185.748 65.2969 194.175 64.1898 194.733 54.9871C195.292 45.7845 189.754 31.3766 189.754 31.3766Z" fill="#F5C878"/>
<path d="M290 55.4538C290 55.4538 321.761 57.7505 320.254 47.3788C318.746 37.0071 312.539 31.2005 305.076 36.6135C297.613 42.0266 290 55.4538 290 55.4538Z" fill="#F5C878"/>
<path d="M189.354 16.0053C189.354 16.0053 157.732 12.2459 158.76 22.6761C159.787 33.1063 165.72 39.1931 173.425 34.13C181.13 29.067 189.354 16.0053 189.354 16.0053Z" fill="#F5C878"/>
</svg>
